<svg width="250" height="87" viewBox="0 0 250 87" fill="none" xmlns="http://www.w3.org/2000/svg">
<path d="M1336.67 87.9606V0.358765L1328.45 0.421435C1243.81 0.421435 1257.1 68.5171 1177.55 68.5171C1097.99 68.5171 1098.56 0.421435 1023.27 0.421435C947.986 0.421435 941.297 68.5171 873.507 68.5171C805.717 68.5171 791.694 0.421435 718.818 0.421435C645.537 0.421435 622.263 66.8937 566.122 68.4537C489.396 66.8683 489.055 0.396044 414.664 0.396044C339.364 0.396044 332.687 68.4918 264.897 68.4918C255.422 67.7389 251.602 66.7465 247.008 64.3687C242.414 61.9908 227.535 54.2052 218.399 46.7282C194.04 26.8031 177.14 0.358765 124.381 0.358765C39.7416 0.358765 53.0321 68.4544 -26.5214 68.4544C-106.075 68.4544 -105.507 0.358765 -180.794 0.358765C-256.082 0.358765 -262.771 68.4544 -330.561 68.4544C-398.352 68.4544 -412.374 0.358765 -485.251 0.358765C-558.531 0.358765 -581.806 66.831 -637.946 68.391C-714.672 66.8056 -715.013 0.333374 -789.404 0.333374C-864.704 0.333374 -871.381 68.429 -939.171 68.429C-1004.63 68.429 -1019.97 4.87393 -1086.67 0.574356V87.9606H1336.67Z" fill="#0D745B"/>
</svg>
