<svg width="250" height="250" viewBox="0 0 250 250" fill="red
" xmlns="http://www.w3.org/2000/svg">
<path d="M-912.351 723.944L-860.571 794.605L-853.98 789.697C-785.709 739.668 -836.68 692.597 -772.511 645.575C-708.342 598.552 -668.55 653.814 -607.822 609.313C-547.095 564.811 -581.95 505.931 -527.27 465.861C-472.589 425.791 -421.028 472.429 -362.245 429.353C-303.136 386.038 -323.654 318.664 -279.293 284.222C-216.467 240.149 -176.902 293.565 -116.897 249.593C-56.1594 205.084 -91.0242 146.211 -36.344 106.141C-28.2567 101.148 -24.5888 99.6908 -19.4775 98.8932C-14.3662 98.0956 2.23692 95.5811 14.0256 96.212C45.4518 97.8852 74.7144 109.226 117.27 78.0415C185.541 28.0121 134.57 -19.0586 198.739 -66.0815C262.908 -113.104 302.7 -57.8421 363.427 -102.343C424.155 -146.845 389.3 -205.725 443.98 -245.795C498.661 -285.865 550.222 -239.227 609.005 -282.303C668.114 -325.618 647.596 -392.992 691.957 -427.434C754.783 -471.507 794.348 -418.091 854.353 -462.063C915.091 -506.572 880.226 -565.445 934.906 -605.515C987.703 -644.204 1037.65 -602.012 1093.98 -637.965L1042.33 -708.451L-912.351 723.944Z" fill="#0D745B"/>
</svg>
