<svg width="16" height="16" viewBox="0 0 16 16" fill="none" xmlns="http://www.w3.org/2000/svg">
<path d="M16 7.5C16 7.69698 15.9612 7.89204 15.8858 8.07403C15.8104 8.25601 15.6999 8.42137 15.5607 8.56066C15.4214 8.69995 15.256 8.81044 15.074 8.88582C14.892 8.9612 14.697 9 14.5 9C14.303 9 14.108 8.9612 13.926 8.88582C13.744 8.81044 13.5786 8.69995 13.4393 8.56066C13.3001 8.42137 13.1896 8.25601 13.1142 8.07403C13.0388 7.89204 13 7.69698 13 7.5V1.5C13 1.10218 13.158 0.720645 13.4393 0.439341C13.7206 0.158036 14.1022 0 14.5 0C14.8978 0 15.2794 0.158036 15.5607 0.439341C15.842 0.720645 16 1.10218 16 1.5V7.5Z" fill="#231F20"/>
<path d="M12 7.667V2.237C12.0002 1.86534 11.8968 1.50098 11.7014 1.1848C11.5061 0.868621 11.2265 0.613134 10.894 0.447001L10.844 0.422001C10.2891 0.14467 9.67733 0.000197411 9.057 0H3.641C3.17847 -0.000183105 2.73018 0.159952 2.37245 0.45314C2.01471 0.746328 1.76966 1.15444 1.679 1.608L0.479 7.608C0.42101 7.89813 0.428113 8.19751 0.499796 8.48456C0.571479 8.77161 0.705954 9.03918 0.893532 9.26799C1.08111 9.49679 1.31712 9.68113 1.58454 9.80771C1.85196 9.9343 2.14413 9.99997 2.44 10H6L6 14C6 14.5304 6.21071 15.0391 6.58579 15.4142C6.96086 15.7893 7.46957 16 8 16C8.26522 16 8.51957 15.8946 8.70711 15.7071C8.89464 15.5196 9 15.2652 9 15V14.333C9 13.4675 9.28071 12.6254 9.8 11.933L11.2 10.067C11.7193 9.37462 12 8.53248 12 7.667Z" fill="#231F20"/>
</svg>
