<svg width="75" height="237" viewBox="0 0 75 237" fill="none" xmlns="http://www.w3.org/2000/svg">
<circle cy="75.25" r="75" transform="rotate(-90 0 75.25)" fill="#0D745B"/>
<path fill-rule="evenodd" clip-rule="evenodd" d="M61.1035 118.5C47.505 99.4327 25.2044 87 0 87C-25.2044 87 -47.505 99.4327 -61.1035 118.5C-69.853 106.232 -75 91.217 -75 75C-75 33.5786 -41.4214 0 0 0C41.4214 0 75 33.5786 75 75C75 91.217 69.853 106.232 61.1035 118.5ZM61.1035 118.5C69.853 130.768 75 145.783 75 162C75 203.421 41.4214 237 0 237C-41.4214 237 -75 203.421 -75 162C-75 145.783 -69.853 130.768 -61.1035 118.5C-47.505 137.567 -25.2044 150 0 150C25.2044 150 47.505 137.567 61.1035 118.5Z" fill="#F3937D"/>
</svg>
