<svg width="72" height="25" viewBox="0 0 72 25" fill="none" xmlns="http://www.w3.org/2000/svg">
<path d="M12.096 3.3V13.716L4.347 3.3H1.848V18H4.473V7.584L12.201 18H14.7V3.3H12.096ZM28.6878 18H31.4808L25.6848 3.3H22.6398L16.8648 18H19.6578L20.9598 14.514H27.3858L28.6878 18ZM21.8208 12.225L24.1728 5.925L26.5248 12.225H21.8208ZM39.2211 3.3H33.6351V18H39.2211C43.4631 18 46.4661 15.291 46.4661 10.65C46.4661 6.009 43.4631 3.3 39.2211 3.3ZM39.2211 15.522H36.3021V5.778H39.2211C42.0141 5.778 43.6731 7.458 43.6731 10.65C43.6731 13.842 42.0141 15.522 39.2211 15.522ZM58.9984 18H61.7914L55.9954 3.3H52.9504L47.1754 18H49.9684L51.2704 14.514H57.6964L58.9984 18ZM52.1314 12.225L54.4834 5.925L56.8354 12.225H52.1314Z" fill="#231F20"/>
<path d="M65.2 4H65.835V1.09H66.925V0.5H64.11V1.09H65.2V4ZM70.5471 0.5L69.3771 2.445L68.2071 0.5H67.4771V4H68.0971V1.43L69.1271 3.135H69.6221L70.6521 1.43V4H71.2721V0.5H70.5471Z" fill="black"/>
</svg>
