<svg width="8" height="6" viewBox="0 0 8 6" fill="none" xmlns="http://www.w3.org/2000/svg">
<path d="M3.7261 5.52308C3.75668 5.5675 3.7976 5.60381 3.84533 5.6289C3.89306 5.65399 3.94618 5.66709 4.0001 5.66709C4.05402 5.66709 4.10714 5.65399 4.15487 5.6289C4.2026 5.60381 4.24352 5.5675 4.2741 5.52308L7.2741 1.18975C7.30883 1.13977 7.32919 1.08123 7.33298 1.02048C7.33677 0.959742 7.32384 0.899123 7.2956 0.845213C7.26735 0.791303 7.22488 0.746164 7.17278 0.714701C7.12068 0.683237 7.06096 0.666653 7.0001 0.666748H1.0001C0.939382 0.666999 0.87988 0.683797 0.827995 0.715336C0.776109 0.746875 0.733802 0.791961 0.705624 0.845746C0.677446 0.899531 0.664463 0.95998 0.668071 1.02059C0.671679 1.0812 0.691741 1.13969 0.726101 1.18975L3.7261 5.52308Z" fill="#231F20"/>
</svg>
