<svg width="16" height="21" viewBox="0 0 16 21" fill="none" xmlns="http://www.w3.org/2000/svg">
<path d="M7.3 0.260066L1.3 2.51007C0.52 2.81007 0 3.55007 0 4.39007V9.10007C0 14.1501 3.41 18.8601 8 20.0101C12.59 18.8601 16 14.1501 16 9.10007V4.39007C15.9993 3.98313 15.8745 3.58609 15.6422 3.25195C15.4099 2.91782 15.0812 2.66249 14.7 2.52007L8.7 0.270066C8.25 0.0900658 7.75 0.0900659 7.3 0.260066ZM6.23 12.8301L4.11 10.7101C4.01742 10.6175 3.94398 10.5076 3.89387 10.3866C3.84377 10.2656 3.81798 10.136 3.81798 10.0051C3.81798 9.87414 3.84377 9.74449 3.89387 9.62352C3.94398 9.50256 4.01742 9.39265 4.11 9.30007C4.20258 9.20748 4.31249 9.13404 4.43346 9.08394C4.55442 9.03383 4.68407 9.00805 4.815 9.00805C4.94593 9.00805 5.07558 9.03383 5.19654 9.08394C5.31751 9.13404 5.42742 9.20748 5.52 9.30007L6.93 10.7101L10.47 7.17007C10.5626 7.07748 10.6725 7.00404 10.7935 6.95394C10.9144 6.90383 11.0441 6.87805 11.175 6.87805C11.3059 6.87805 11.4356 6.90383 11.5565 6.95394C11.6775 7.00404 11.7874 7.07748 11.88 7.17007C11.9726 7.26265 12.046 7.37256 12.0961 7.49352C12.1462 7.61449 12.172 7.74414 12.172 7.87507C12.172 8.006 12.1462 8.13564 12.0961 8.25661C12.046 8.37757 11.9726 8.48748 11.88 8.58007L7.64 12.8201C7.26 13.2201 6.62 13.2201 6.23 12.8301Z" fill="#0D745B"/>
</svg>
