<svg width="38" height="24" viewBox="0 0 38 24" fill="none" xmlns="http://www.w3.org/2000/svg">
<path d="M34.4506 0.0136719H2.97878C2.75236 0.0136719 2.5033 0.0363134 2.27689 0.0815964C2.05047 0.126879 1.82406 0.194804 1.59764 0.308011C1.39387 0.398578 1.19009 0.557068 1.0316 0.715559C0.87311 0.874049 0.714619 1.07782 0.624052 1.2816C0.510845 1.48537 0.44292 1.71179 0.397637 1.96084C0.352354 2.18726 0.352353 2.43631 0.329712 2.66273V21.342C0.329712 21.5684 0.352354 21.8174 0.397637 22.0439C0.44292 22.2703 0.510845 22.4967 0.624052 22.7231C0.73726 22.9269 0.87311 23.1307 1.0316 23.2891C1.19009 23.4476 1.39387 23.6061 1.59764 23.6967C1.80141 23.8099 2.02783 23.8778 2.27689 23.9231C2.5033 23.9684 2.75236 23.9684 2.97878 23.991H35.1525C35.3789 23.991 35.6279 23.9684 35.8544 23.9231C36.0808 23.8778 36.3072 23.8099 36.5336 23.6967C36.7374 23.5835 36.9412 23.4476 37.0996 23.2891C37.2581 23.1307 37.4166 22.9269 37.5072 22.7231C37.6204 22.5193 37.6883 22.2929 37.7336 22.0439C37.7789 21.8174 37.7789 21.5684 37.8015 21.342V21.025V3.36462V2.97971V2.66273C37.8015 2.43631 37.7789 2.18726 37.7336 1.96084C37.6883 1.73443 37.6204 1.50801 37.5072 1.2816C37.394 1.07782 37.2581 0.874049 37.0996 0.715559C36.9412 0.557068 36.7374 0.398578 36.5336 0.308011C36.3298 0.194804 36.1034 0.126879 35.8544 0.0815964C35.6279 0.0363134 35.3789 0.0363134 35.1525 0.0136719H34.4506V0.0136719Z" fill="black"/>
<path d="M34.4504 0.805664H35.1523C35.3334 0.805664 35.5372 0.828306 35.7409 0.850947C35.9221 0.873589 36.0579 0.918872 36.1938 0.986796C36.3296 1.05472 36.4428 1.14529 36.556 1.25849C36.6692 1.3717 36.7598 1.48491 36.8277 1.62076C36.8957 1.75661 36.9409 1.89246 36.9636 2.07359C37.0089 2.27736 37.0089 2.48114 37.0089 2.66227V21.3415C37.0089 21.5226 36.9862 21.7264 36.9636 21.9302C36.9409 22.0887 36.8957 22.2472 36.8277 22.383C36.7598 22.5189 36.6692 22.6321 36.556 22.7453C36.4428 22.8585 36.3296 22.9491 36.1938 23.017C36.0579 23.0849 35.9221 23.1302 35.7409 23.1528C35.5372 23.1981 35.3334 23.1981 35.1523 23.1981H2.97879C2.8203 23.1981 2.59389 23.1755 2.39011 23.1528C2.23162 23.1302 2.07313 23.0849 1.93728 22.9943C1.80144 22.9264 1.68823 22.8359 1.57502 22.7226C1.46181 22.6094 1.37125 22.4962 1.30332 22.3604C1.2354 22.2245 1.19012 22.0887 1.16748 21.9075C1.12219 21.7038 1.12219 21.5 1.12219 21.3189V2.97925V2.66227C1.12219 2.48114 1.14483 2.27736 1.16748 2.07359C1.19012 1.9151 1.2354 1.75661 1.30332 1.62076C1.37125 1.48491 1.46181 1.3717 1.57502 1.25849C1.68823 1.14529 1.80144 1.05472 1.93728 0.986796C2.07313 0.918872 2.20898 0.873589 2.39011 0.850947C2.59389 0.805664 2.79766 0.805664 2.97879 0.805664H34.4504Z" fill="white"/>
<path d="M10.5637 8.07344C10.8807 7.66589 11.1071 7.1225 11.0392 6.5791C10.5637 6.60174 9.99768 6.89608 9.65806 7.28099C9.36372 7.62061 9.09202 8.18665 9.15994 8.7074C9.70334 8.77533 10.2241 8.48099 10.5637 8.07344ZM11.0392 8.84325C10.2694 8.79797 9.61277 9.27344 9.25051 9.27344C8.88825 9.27344 8.32221 8.86589 7.71089 8.86589C6.91843 8.88854 6.19391 9.31872 5.78636 10.0433C4.97126 11.4697 5.55994 13.5753 6.37504 14.73C6.75994 15.2961 7.23542 15.93 7.84674 15.9074C8.43542 15.8848 8.66183 15.5225 9.36372 15.5225C10.0656 15.5225 10.2694 15.9074 10.9033 15.8848C11.5373 15.8621 11.9448 15.3187 12.3298 14.73C12.7826 14.0734 12.9637 13.4395 12.9637 13.4168C12.9411 13.3942 11.7184 12.9414 11.7184 11.5376C11.6958 10.3602 12.6694 9.7942 12.7147 9.77155C12.1939 8.95646 11.3335 8.86589 11.0392 8.84325Z" fill="black"/>
<path d="M17.6957 7.23633C19.3712 7.23633 20.5259 8.39105 20.5259 10.0439C20.5259 11.7194 19.3485 12.8741 17.6504 12.8741H15.8164V15.7949H14.4806V7.23633H17.6957ZM15.8164 11.7647H17.3334C18.4881 11.7647 19.1447 11.1307 19.1447 10.0665C19.1447 8.97973 18.4881 8.36841 17.3334 8.36841H15.7938V11.7647H15.8164ZM20.8655 14.0515C20.8655 12.9647 21.7032 12.2854 23.1976 12.1948L24.9183 12.1043V11.6288C24.9183 10.9269 24.4429 10.5194 23.673 10.5194C22.9259 10.5194 22.473 10.8816 22.3598 11.425H21.1372C21.2051 10.2929 22.1787 9.45521 23.7183 9.45521C25.2353 9.45521 26.2089 10.2477 26.2089 11.5156V15.8175H24.9863V14.7986H24.9636C24.6013 15.5005 23.8089 15.9307 22.9938 15.9307C21.7259 15.9307 20.8655 15.1609 20.8655 14.0515ZM24.9183 13.4854V12.9873L23.3787 13.0779C22.6089 13.1232 22.1787 13.4628 22.1787 14.0062C22.1787 14.5496 22.6315 14.9118 23.3108 14.9118C24.2164 14.9118 24.9183 14.3005 24.9183 13.4854ZM27.341 18.127V17.0854C27.4315 17.1081 27.6579 17.1081 27.7485 17.1081C28.3372 17.1081 28.6542 16.859 28.8579 16.2251C28.8579 16.2024 28.9712 15.8401 28.9712 15.8401L26.707 9.59106H28.0881L29.673 14.6854H29.6957L31.2806 9.59106H32.6391L30.307 16.1798C29.7636 17.6968 29.1523 18.1722 27.8617 18.1722C27.7712 18.1496 27.4542 18.1496 27.341 18.127Z" fill="black"/>
</svg>
