<svg width="32" height="32" viewBox="0 0 32 32" fill="none" xmlns="http://www.w3.org/2000/svg">
<g clip-path="url(#clip0)">
<path d="M28.3774 0H3.54717C1.59623 0 0 1.6 0 3.55556V28.4444C0 30.4018 1.59623 32 3.54717 32H15.9623V19.5556H12.4151V15.1556H15.9623V11.5111C15.9623 7.664 18.1118 4.96178 22.6416 4.96178L25.8394 4.96533V9.59644H23.7164C21.9534 9.59644 21.283 10.9227 21.283 12.1529V15.1573H25.8376L24.8302 19.5556H21.283V32H28.3774C30.3283 32 31.9245 30.4018 31.9245 28.4444V3.55556C31.9245 1.6 30.3283 0 28.3774 0Z" fill="#231F20"/>
</g>
<defs>
<clipPath id="clip0">
<rect width="31.9245" height="32" fill="white"/>
</clipPath>
</defs>
</svg>
