<svg width="46" height="19" viewBox="0 0 46 19" fill="none" xmlns="http://www.w3.org/2000/svg">
<path d="M21.4424 8.79745V14.0716H19.7679V1.04388H24.2066C25.2774 1.0211 26.3121 1.42738 27.081 2.1716C27.8594 2.87216 28.298 3.87458 28.2809 4.92066C28.3037 5.97435 27.8651 6.98436 27.081 7.68681C26.3045 8.42724 25.3458 8.79745 24.2066 8.79555L21.4424 8.79745ZM21.4424 2.64813V7.19699H24.2484C24.8711 7.21598 25.4711 6.97107 25.9039 6.52302C26.783 5.66868 26.8038 4.26188 25.9476 3.38286C25.9324 3.36767 25.9191 3.35248 25.9039 3.33919C25.4768 2.88165 24.873 2.63104 24.2484 2.64813H21.4424ZM32.1387 4.86751C33.3766 4.86751 34.3524 5.19785 35.0681 5.85853C35.7839 6.51922 36.1408 7.42672 36.1408 8.57722V14.0716H34.5404V12.8337H34.4682C33.7752 13.8532 32.8526 14.362 31.7021 14.362C30.7205 14.362 29.8984 14.0716 29.2378 13.4887C28.5961 12.9476 28.2315 12.1464 28.2467 11.3054C28.2467 10.3827 28.5961 9.64989 29.2928 9.10501C29.9896 8.56013 30.9199 8.28675 32.0856 8.28675C33.0785 8.28675 33.8987 8.46901 34.5404 8.83162V8.44812C34.5442 7.87477 34.2897 7.33179 33.8493 6.96727C33.4069 6.56858 32.8298 6.35025 32.2336 6.35785C31.2996 6.35785 30.5591 6.75274 30.0143 7.54063L28.541 6.61225C29.3498 5.44845 30.5496 4.86751 32.1387 4.86751ZM29.9725 11.3434C29.9706 11.7762 30.1775 12.1825 30.5269 12.435C30.8971 12.7255 31.3565 12.8812 31.8274 12.8717C32.5336 12.8698 33.2114 12.5888 33.7107 12.0895C34.2651 11.5674 34.5423 10.9561 34.5423 10.2517C34.0202 9.83594 33.293 9.6271 32.3589 9.6271C31.6793 9.6271 31.1116 9.79038 30.6579 10.1188C30.2003 10.453 29.9725 10.8573 29.9725 11.3434ZM45.3297 5.15798L39.7423 18.0015H38.0147L40.0879 13.5077L36.4123 5.15798H38.2311L40.8871 11.5617H40.9232L43.5071 5.15798H45.3297Z" fill="#5F6368"/>
<path d="M14.6781 7.65641C14.6781 7.1457 14.6364 6.6369 14.549 6.13379H7.4903V9.01575H11.5323C11.3652 9.94603 10.826 10.7681 10.0381 11.2902V13.1621H12.4512C13.8637 11.8616 14.6781 9.93464 14.6781 7.65641Z" fill="#4285F4"/>
<path d="M7.48977 14.9724C9.5098 14.9724 11.2109 14.3098 12.4506 13.165L10.0376 11.2931C9.36551 11.7487 8.50168 12.0088 7.48977 12.0088C5.53808 12.0088 3.88067 10.6931 3.28833 8.91992H0.803162V10.8488C2.07327 13.3777 4.66096 14.9724 7.48977 14.9724Z" fill="#34A853"/>
<path d="M3.28853 8.91584C2.97527 7.98747 2.97527 6.97935 3.28853 6.05097V4.12207H0.803362C-0.259812 6.23703 -0.259812 8.72979 0.803362 10.8447L3.28853 8.91584Z" fill="#FBBC04"/>
<path d="M7.48977 2.96601C8.55674 2.94892 9.58764 3.35141 10.3603 4.08803L12.4981 1.95219C11.1425 0.680182 9.34842 -0.0184756 7.48977 0.00240817C4.66096 0.00240817 2.07327 1.59907 0.803162 4.126L3.28833 6.0549C3.88067 4.28168 5.53808 2.96601 7.48977 2.96601Z" fill="#EA4335"/>
</svg>
