<svg width="33" height="32" viewBox="0 0 33 32" fill="none" xmlns="http://www.w3.org/2000/svg">
<g clip-path="url(#clip0)">
<path d="M32.6933 9.44495C32.6755 8.10134 32.4246 6.77109 31.9518 5.51369C31.5418 4.45309 30.9156 3.48987 30.1132 2.68559C29.3108 1.8813 28.3499 1.25362 27.2918 0.842666C26.0535 0.376728 24.7453 0.124788 23.4229 0.0975719C21.7203 0.0212885 21.1805 0 16.8585 0C12.5365 0 11.9826 1.18958e-07 10.2924 0.0975719C8.97058 0.124988 7.66299 0.376925 6.42525 0.842666C5.36698 1.25334 4.40589 1.88091 3.60346 2.68523C2.80103 3.48956 2.17494 4.45293 1.76524 5.51369C1.29947 6.75398 1.04867 8.06495 1.02367 9.38996C0.947569 11.0983 0.924561 11.6394 0.924561 15.9716C0.924561 20.3038 0.924561 20.8573 1.02367 22.5533C1.05022 23.8803 1.29977 25.1895 1.76524 26.4331C2.17563 27.4935 2.80219 28.4565 3.60488 29.2605C4.40758 30.0645 5.36876 30.6918 6.42702 31.1023C7.66137 31.587 8.96918 31.857 10.2941 31.9007C11.9985 31.9769 12.5383 32 16.8603 32C21.1823 32 21.7362 32 23.4264 31.9007C24.7488 31.8746 26.0571 31.6232 27.2953 31.1573C28.3531 30.7459 29.3138 30.1181 30.1162 29.3138C30.9185 28.5096 31.5449 27.5466 31.9553 26.4863C32.4208 25.2445 32.6703 23.9353 32.6969 22.6065C32.773 20.8999 32.796 20.3588 32.796 16.0248C32.7925 11.6927 32.7925 11.1427 32.6933 9.44495ZM16.8479 24.1641C12.3277 24.1641 8.66588 20.4936 8.66588 15.9627C8.66588 11.4319 12.3277 7.76139 16.8479 7.76139C19.0179 7.76139 21.099 8.62546 22.6334 10.1635C24.1679 11.7016 25.0299 13.7876 25.0299 15.9627C25.0299 18.1379 24.1679 20.2239 22.6334 21.762C21.099 23.3 19.0179 24.1641 16.8479 24.1641ZM25.3556 9.37044C24.299 9.37044 23.4477 8.51536 23.4477 7.45803C23.4477 7.20701 23.497 6.95844 23.5928 6.72653C23.6887 6.49461 23.8291 6.28389 24.0062 6.10638C24.1833 5.92888 24.3935 5.78808 24.6249 5.69202C24.8563 5.59596 25.1042 5.54651 25.3547 5.54651C25.6051 5.54651 25.8531 5.59596 26.0845 5.69202C26.3158 5.78808 26.5261 5.92888 26.7031 6.10638C26.8802 6.28389 27.0207 6.49461 27.1165 6.72653C27.2124 6.95844 27.2617 7.20701 27.2617 7.45803C27.2617 8.51536 26.4086 9.37044 25.3556 9.37044Z" fill="#231F20"/>
<path d="M16.8479 21.2886C19.7833 21.2886 22.1628 18.9035 22.1628 15.9612C22.1628 13.019 19.7833 10.6338 16.8479 10.6338C13.9126 10.6338 11.5331 13.019 11.5331 15.9612C11.5331 18.9035 13.9126 21.2886 16.8479 21.2886Z" fill="#231F20"/>
</g>
<defs>
<clipPath id="clip0">
<rect width="31.9245" height="32" fill="white" transform="translate(0.924561)"/>
</clipPath>
</defs>
</svg>
