<svg width="101" height="32" viewBox="0 0 101 32" fill="none" xmlns="http://www.w3.org/2000/svg">
<path d="M42.4744 8.44727C37.2887 8.44727 33.9887 10.4251 32.9998 14.1185L36.5833 15.9617C37.0548 13.3458 39.2099 11.9032 42.6623 11.9032C45.9622 11.9032 47.8976 13.2537 47.8976 15.5895V16.1708C47.8976 16.9365 47.4722 17.2945 46.3876 17.3866L39.7415 18.014C35.0273 18.4642 32.1491 21.0694 32.1491 24.933C32.1491 29.112 35.3392 31.9866 40.1669 31.9866C43.5129 31.9866 46.2458 30.5936 47.8976 28.2578V31.4479H51.9702V16.8656C51.9702 11.2794 48.7447 8.44727 42.4744 8.44727ZM47.8976 22.3774C47.8976 25.6561 44.7394 28.3499 40.7765 28.3499C38.0437 28.3499 36.3919 27.003 36.3919 24.9826C36.3919 23.1394 37.8098 21.8811 40.213 21.6117L47.8976 20.715V22.3774Z" fill="#231F20"/>
<path d="M25.3152 24.982L4.24283 0H0V31.4508H4.24283V6.51489L25.3152 31.4508H29.558V0H25.3152V24.982Z" fill="#231F20"/>
<path d="M73.9677 12.2571C72.9639 11.0338 71.6955 10.0543 70.2582 9.39245C68.8208 8.73057 67.252 8.40356 65.6699 8.43604C58.9743 8.43604 54.3274 13.2885 54.3274 20.2075C54.3274 27.1265 58.992 31.979 65.6699 31.979C69.1578 31.979 72.0501 30.6781 73.9677 28.204V31.4402H78.0227V0H73.9677V12.2571ZM66.3788 28.3848C61.615 28.3848 58.5028 25.1521 58.5028 20.2075C58.5028 15.2628 61.615 12.0302 66.3788 12.0302C71.1427 12.0302 74.2513 15.2203 74.2513 20.2075C74.2513 25.1947 71.1392 28.3954 66.3788 28.3954V28.3848Z" fill="#231F20"/>
<path d="M90.9391 8.44727C85.7534 8.44727 82.4534 10.4251 81.4645 14.1186L85.048 15.9617C85.5195 13.3565 87.6852 11.9174 91.1269 11.9174C94.4269 11.9174 96.3622 13.2679 96.3622 15.6037V16.185C96.3622 16.9507 95.9369 17.3086 94.8523 17.4008L88.2062 18.0282C83.492 18.4784 80.6138 21.0836 80.6138 24.9472C80.6138 29.1262 83.8216 32.0008 88.628 32.0008C91.9776 32.0008 94.7105 30.6078 96.3622 28.272V31.462H100.417V16.8656C100.417 11.2794 97.2094 8.44727 90.9391 8.44727ZM96.3622 22.3774C96.3622 25.6561 93.2041 28.3499 89.2412 28.3499C86.5084 28.3499 84.8566 27.003 84.8566 24.9826C84.8566 23.1394 86.2745 21.8811 88.6777 21.6117L96.3622 20.715V22.3774Z" fill="#231F20"/>
<path d="M94.115 3.69697H94.7742V0.563585H95.8837V0H93.0161V0.563585H94.115V3.69697Z" fill="#231F20"/>
<path d="M99.7543 0L98.4819 2.2118H98.4712L97.1916 0H96.5323V3.69697H97.1881V1.21933H97.1987L98.2585 2.98451H98.691L99.7508 1.21933H99.7579V3.69697H100.417V0H99.7543Z" fill="#231F20"/>
</svg>
