<svg width="32" height="25" viewBox="0 0 32 25" fill="none" xmlns="http://www.w3.org/2000/svg">
<path d="M30.3941 23.6758V23.7375H30.4516C30.4624 23.7377 30.4731 23.735 30.4825 23.7297C30.4862 23.727 30.4893 23.7235 30.4913 23.7194C30.4933 23.7152 30.4943 23.7107 30.4941 23.7061C30.4943 23.7016 30.4933 23.6971 30.4913 23.6931C30.4892 23.6891 30.4862 23.6856 30.4825 23.6831C30.4732 23.6775 30.4625 23.6748 30.4516 23.6752H30.3941V23.6758ZM30.4523 23.6322C30.4769 23.6307 30.5013 23.6378 30.5214 23.6522C30.5294 23.6588 30.5358 23.6672 30.54 23.6767C30.5442 23.6861 30.5461 23.6965 30.5456 23.7068C30.5459 23.7158 30.5444 23.7247 30.541 23.7329C30.5377 23.7412 30.5326 23.7487 30.5261 23.7548C30.5107 23.7682 30.4913 23.7763 30.4709 23.7778L30.548 23.8657H30.4887L30.4177 23.7784H30.3947V23.8657H30.3451V23.6323H30.453L30.4523 23.6322ZM30.4368 23.9462C30.4629 23.9465 30.4887 23.9412 30.5126 23.9308C30.5356 23.9209 30.5565 23.9067 30.5743 23.889C30.592 23.8713 30.6062 23.8504 30.6161 23.8273C30.6363 23.7784 30.6363 23.7235 30.6161 23.6746C30.6061 23.6516 30.5919 23.6307 30.5743 23.6129C30.5565 23.5952 30.5356 23.581 30.5126 23.5711C30.4886 23.5613 30.4628 23.5563 30.4368 23.5566C30.4104 23.5564 30.3842 23.5613 30.3597 23.5711C30.3362 23.5808 30.3148 23.595 30.2966 23.6129C30.2693 23.6409 30.2509 23.6763 30.2436 23.7147C30.2363 23.7531 30.2404 23.7928 30.2555 23.8289C30.2648 23.852 30.2789 23.873 30.2966 23.8906C30.3148 23.9084 30.3362 23.9226 30.3597 23.9324C30.3841 23.9428 30.4103 23.948 30.4368 23.9478V23.9462ZM30.4368 23.5005C30.5046 23.5004 30.5697 23.527 30.6181 23.5745C30.6414 23.5973 30.6599 23.6245 30.6727 23.6546C30.6859 23.6854 30.6927 23.7186 30.6927 23.7521C30.6927 23.7857 30.6859 23.8188 30.6727 23.8497C30.6596 23.8795 30.6411 23.9067 30.6181 23.9297C30.5944 23.9524 30.5669 23.9707 30.5368 23.9837C30.5052 23.9971 30.4712 24.004 30.4368 24.0038C30.4021 24.004 30.3677 23.9972 30.3357 23.9837C30.3052 23.971 30.2774 23.9527 30.2538 23.9297C30.2307 23.9059 30.2124 23.8778 30.1999 23.8471C30.1867 23.8162 30.1799 23.783 30.1799 23.7495C30.1799 23.716 30.1867 23.6828 30.1999 23.6519C30.2127 23.6219 30.2312 23.5947 30.2545 23.5719C30.2779 23.5485 30.3057 23.5302 30.3364 23.5179C30.3684 23.5044 30.4029 23.4976 30.4376 23.4978L30.4368 23.5005ZM6.81936 22.5992C6.81936 22.1542 7.11087 21.7887 7.58733 21.7887C8.04265 21.7887 8.3499 22.1385 8.3499 22.5992C8.3499 23.0599 8.04265 23.4098 7.58733 23.4098C7.11087 23.4098 6.81936 23.0442 6.81936 22.5992ZM8.86892 22.5992V21.3329H8.31843V21.6414C8.14383 21.4134 7.879 21.2704 7.51884 21.2704C6.80933 21.2704 6.25252 21.8269 6.25252 22.5998C6.25252 23.3728 6.80902 23.9293 7.51884 23.9293C7.87884 23.9293 8.14383 23.7861 8.31843 23.5583V23.8657H8.8683V22.5992H8.86892ZM27.4692 22.5992C27.4692 22.1542 27.7607 21.7887 28.2374 21.7887C28.6931 21.7887 28.9999 22.1385 28.9999 22.5992C28.9999 23.0599 28.6931 23.4098 28.2374 23.4098C27.7609 23.4098 27.4692 23.0442 27.4692 22.5992ZM29.5194 22.5992V20.3164H28.9685V21.6414C28.7939 21.4134 28.529 21.2704 28.1689 21.2704C27.4594 21.2704 26.9025 21.8269 26.9025 22.5998C26.9025 23.3728 27.459 23.9293 28.1689 23.9293C28.529 23.9293 28.7939 23.7861 28.9685 23.5583V23.8657H29.5194V22.5992ZM15.7012 21.7626C16.056 21.7626 16.2838 21.985 16.3419 22.3766H15.0284C15.0872 22.0111 15.3091 21.7626 15.7014 21.7626H15.7012ZM15.7123 21.269C14.9704 21.269 14.4514 21.8089 14.4514 22.5984C14.4514 23.4035 14.9912 23.9279 15.7492 23.9279C16.1305 23.9279 16.4797 23.8327 16.7869 23.5731L16.5171 23.1651C16.3049 23.3348 16.0347 23.43 15.7806 23.43C15.4259 23.43 15.1029 23.2657 15.0235 22.8099H16.9032C16.9086 22.7414 16.9142 22.6723 16.9142 22.5983C16.9086 21.809 16.4206 21.2689 15.712 21.2689L15.7123 21.269ZM22.3583 22.5983C22.3583 22.1533 22.6498 21.7877 23.1262 21.7877C23.5816 21.7877 23.8888 22.1376 23.8888 22.5983C23.8888 23.059 23.5816 23.4088 23.1262 23.4088C22.6498 23.4088 22.3581 23.0433 22.3581 22.5983H22.3583ZM24.4077 22.5983V21.3329H23.8575V21.6414C23.6823 21.4134 23.4181 21.2704 23.0579 21.2704C22.3484 21.2704 21.7916 21.8269 21.7916 22.5998C21.7916 23.3728 22.3481 23.9293 23.0579 23.9293C23.4181 23.9293 23.6823 23.7861 23.8575 23.5583V23.8657H24.4078V22.5992L24.4077 22.5983ZM19.2495 22.5983C19.2495 23.3663 19.7841 23.9277 20.6001 23.9277C20.9814 23.9277 21.2354 23.8429 21.5101 23.6259L21.2457 23.1809C21.039 23.3294 20.822 23.4088 20.5825 23.4088C20.1431 23.4034 19.8199 23.0857 19.8199 22.5983C19.8199 22.1109 20.1431 21.7933 20.5825 21.7877C20.8214 21.7877 21.0384 21.8672 21.2457 22.0157L21.5101 21.5707C21.2349 21.3537 20.9809 21.2689 20.6001 21.2689C19.7841 21.2689 19.2495 21.8302 19.2495 22.5983ZM26.3462 21.2689C26.0286 21.2689 25.8218 21.4174 25.6788 21.6398V21.3329H25.1332V23.8643H25.6843V22.4453C25.6843 22.0264 25.8643 21.7936 26.2242 21.7936C26.342 21.7919 26.459 21.8136 26.5685 21.8573L26.7381 21.3384C26.6163 21.2905 26.4574 21.2693 26.3459 21.2693L26.3462 21.2689ZM11.5905 21.5342C11.3257 21.3596 10.9607 21.2693 10.5582 21.2693C9.91684 21.2693 9.50393 21.5767 9.50393 22.0797C9.50393 22.4925 9.81134 22.7471 10.3774 22.8266L10.6375 22.8636C10.9393 22.906 11.0818 22.9854 11.0818 23.1284C11.0818 23.3242 10.8813 23.4358 10.5048 23.4358C10.1235 23.4358 9.84836 23.314 9.6628 23.171L9.40414 23.6003C9.70599 23.8227 10.0873 23.9288 10.5002 23.9288C11.2313 23.9288 11.655 23.5845 11.655 23.1025C11.655 22.6575 11.3215 22.4248 10.7706 22.3453L10.5111 22.3077C10.2728 22.2768 10.0819 22.2289 10.0819 22.0592C10.0819 21.8741 10.2619 21.7628 10.5639 21.7628C10.887 21.7628 11.1998 21.8846 11.3531 21.9798L11.5914 21.5348L11.5905 21.5342ZM18.6935 21.2698C18.3759 21.2698 18.1691 21.4183 18.0267 21.6407V21.3329H17.4812V23.8643H18.0316V22.4453C18.0316 22.0264 18.2116 21.7936 18.5715 21.7936C18.6893 21.7919 18.8063 21.8136 18.9158 21.8573L19.0854 21.3384C18.9636 21.2905 18.8047 21.2693 18.6932 21.2693L18.6935 21.2698ZM13.9959 21.3329H13.0958V20.5649H12.5393V21.3329H12.0258V21.836H12.5393V22.9908C12.5393 23.5782 12.7672 23.928 13.4184 23.928C13.6574 23.928 13.9325 23.854 14.1071 23.7323L13.9481 23.2609C13.7838 23.3561 13.6038 23.4041 13.4607 23.4041C13.1855 23.4041 13.0958 23.2344 13.0958 22.9804V21.8365H13.9959V21.3329ZM5.76573 23.8649V22.2762C5.76573 21.6779 5.38445 21.2753 4.76979 21.2699C4.44666 21.2645 4.11334 21.3651 3.87997 21.7203C3.70537 21.4396 3.43021 21.2699 3.04337 21.2699C2.77298 21.2699 2.50877 21.3494 2.30193 21.6458V21.3329H1.75098V23.8643H2.30625V22.4607C2.30625 22.0213 2.54995 21.7877 2.9263 21.7877C3.29185 21.7877 3.47679 22.026 3.47679 22.4552V23.864H4.03329V22.4604C4.03329 22.021 4.28733 21.7874 4.65272 21.7874C5.02861 21.7874 5.20799 22.0257 5.20799 22.4548V23.8637L5.76573 23.8649Z" fill="#231F20"/>
<path d="M30.7084 15.4443V15.0742H30.612L30.5004 15.3282L30.3895 15.0742H30.2928V15.4443H30.3613V15.1655L30.4656 15.4061H30.5365L30.6408 15.1649V15.4443H30.7087H30.7084ZM30.0968 15.4443V15.1376H30.2202V15.0751H29.9049V15.1376H30.0283V15.4443H30.0962H30.0968Z" fill="#F79410"/>
<path d="M19.7512 17.0314H11.4089V2.03906H19.7513L19.7512 17.0314Z" fill="#FF5F00"/>
<path d="M11.9377 9.53476C11.9377 6.49358 13.3617 3.78448 15.5791 2.03862C13.9006 0.715147 11.8247 -0.00314787 9.68721 1.03704e-05C4.42186 1.03704e-05 0.153687 4.2688 0.153687 9.53476C0.153687 14.8007 4.42186 19.0695 9.68721 19.0695C11.8247 19.0727 13.9008 18.3544 15.5792 17.0309C13.362 15.2854 11.9377 12.5761 11.9377 9.53476Z" fill="#EB001B"/>
<path d="M31.006 9.53574C31.006 14.8017 26.7378 19.0705 21.4724 19.0705C19.3347 19.0736 17.2584 18.3554 15.5796 17.0319C17.7976 15.286 19.2216 12.5771 19.2216 9.53574C19.2216 6.49441 17.7976 3.78546 15.5796 2.0396C17.2584 0.716164 19.3346 -0.00211595 21.4723 0.000986571C26.7376 0.000986571 31.0058 4.26978 31.0058 9.53574" fill="#F79E1B"/>
</svg>
