<svg width="33" height="32" viewBox="0 0 33 32" fill="none" xmlns="http://www.w3.org/2000/svg">
<g clip-path="url(#clip0)">
<path d="M27.4529 10.0417C26.677 10.3889 25.8387 10.625 24.938 10.75C25.8802 10.1944 26.5245 9.38194 26.8709 8.3125C25.9703 8.84028 25.0419 9.19444 24.0859 9.375C23.2406 8.45833 22.1806 8 20.9059 8C19.7004 8 18.6716 8.42708 17.8194 9.28125C16.9673 10.1354 16.5412 11.1667 16.5412 12.375C16.5412 12.7778 16.5758 13.1111 16.6451 13.375C14.8577 13.2778 13.1811 12.8264 11.6153 12.0208C10.0496 11.2153 8.7194 10.1389 7.62477 8.79167C7.22294 9.48611 7.02203 10.2222 7.02203 11C7.02203 12.5833 7.65248 13.7986 8.91339 14.6458C8.26215 14.6319 7.56935 14.4514 6.83497 14.1042V14.1458C6.83497 15.1875 7.18137 16.1146 7.87418 16.9271C8.56699 17.7396 9.41914 18.2431 10.4306 18.4375C10.0288 18.5486 9.67548 18.6042 9.37064 18.6042C9.19051 18.6042 8.92032 18.5764 8.56006 18.5208C8.85104 19.3958 9.36718 20.1181 10.1085 20.6875C10.8498 21.2569 11.6915 21.5486 12.6338 21.5625C11.0265 22.8125 9.21823 23.4375 7.20909 23.4375C6.84883 23.4375 6.50242 23.4167 6.16988 23.375C8.22058 24.6806 10.4514 25.3333 12.8624 25.3333C14.4143 25.3333 15.8692 25.0868 17.2271 24.5938C18.585 24.1007 19.7489 23.441 20.7188 22.6146C21.6887 21.7882 22.5236 20.8368 23.2233 19.7604C23.923 18.684 24.4427 17.559 24.7821 16.3854C25.1216 15.2118 25.2913 14.0417 25.2913 12.875C25.2913 12.625 25.2844 12.4375 25.2706 12.3125C26.1435 11.6875 26.8709 10.9306 27.4529 10.0417ZM32.7737 6V26C32.7737 27.6528 32.1882 29.066 31.0174 30.2396C29.8465 31.4132 28.4367 32 26.7878 32H6.83497C5.18609 32 3.77623 31.4132 2.60539 30.2396C1.43454 29.066 0.849121 27.6528 0.849121 26V6C0.849121 4.34722 1.43454 2.93403 2.60539 1.76042C3.77623 0.586806 5.18609 0 6.83497 0H26.7878C28.4367 0 29.8465 0.586806 31.0174 1.76042C32.1882 2.93403 32.7737 4.34722 32.7737 6Z" fill="#231F20"/>
</g>
<defs>
<clipPath id="clip0">
<rect width="31.9245" height="32" fill="white" transform="translate(0.849121)"/>
</clipPath>
</defs>
</svg>
