<svg width="44" height="15" viewBox="0 0 44 15" fill="none" xmlns="http://www.w3.org/2000/svg">
<path d="M18.7075 13.7686H15.1863L17.387 0.243625H20.9086L18.7075 13.7686ZM12.224 0.243625L8.86699 9.54621L8.46975 7.543L8.47011 7.54373L7.28526 1.46139C7.28526 1.46139 7.142 0.243625 5.6149 0.243625H0.0651214L0 0.472635C0 0.472635 1.69713 0.825737 3.68333 2.01854L6.74259 13.769H10.4114L16.0137 0.243625H12.224ZM39.9204 13.7686H43.1537L40.3347 0.243264H37.5041C36.1969 0.243264 35.8786 1.2512 35.8786 1.2512L30.6269 13.7686H34.2976L35.0316 11.7596H39.508L39.9204 13.7686ZM36.0457 8.98435L37.8959 3.92298L38.9367 8.98435H36.0457ZM30.9022 3.49607L31.4047 0.591662C31.4047 0.591662 29.8541 0.00195312 28.2377 0.00195312C26.4903 0.00195312 22.3406 0.765681 22.3406 4.47941C22.3406 7.97353 27.2109 8.01694 27.2109 9.85228C27.2109 11.6876 22.8424 11.3587 21.4007 10.2014L20.8772 13.2382C20.8772 13.2382 22.4495 14.002 24.8517 14.002C27.2547 14.002 30.8798 12.7578 30.8798 9.37146C30.8798 5.85491 25.9657 5.5275 25.9657 3.99859C25.966 2.46933 29.3954 2.66578 30.9022 3.49607Z" fill="#2566AF"/>
<path d="M8.47001 7.54118L7.28518 1.45896C7.28518 1.45896 7.14192 0.241211 5.61484 0.241211H0.0651207L0 0.470217C0 0.470217 2.66741 1.02301 5.22592 3.0942C7.67229 5.07385 8.47001 7.54118 8.47001 7.54118Z" fill="#E6A540"/>
</svg>
