<svg width="1440" height="1576" viewBox="0 0 1440 1576" fill="none" xmlns="http://www.w3.org/2000/svg">
<path fill-rule="evenodd" clip-rule="evenodd" d="M1440 0.0150676V52V1443.81V1444V1495.67C1420.5 1494.42 1408.39 1484.65 1396.49 1475.05C1394.96 1473.82 1393.43 1472.59 1391.9 1471.38C1389.48 1418.3 1345.68 1376 1292 1376C1242.57 1376 1201.52 1411.86 1193.44 1458.98C1187.8 1456.91 1181.26 1455.59 1173.36 1455.43C1157.94 1455.86 1146.7 1464.51 1134.76 1473.7C1120.87 1484.39 1106.04 1495.8 1082.62 1495.8C1060.58 1495.8 1047.6 1485.33 1034.85 1475.05C1022.56 1465.13 1010.48 1455.39 990.705 1455.39C971.092 1455.39 960.086 1464.97 948.791 1474.8C936.888 1485.16 924.665 1495.8 901.71 1495.8C879.649 1495.8 868.549 1485.97 857.296 1476.01C845.729 1465.77 833.999 1455.39 810.037 1455.39C786.767 1455.39 776.866 1465.18 766.811 1475.13C756.439 1485.38 745.905 1495.8 720.367 1495.8C694.779 1495.8 683.386 1485.35 672.192 1475.07C669.671 1472.76 667.16 1470.46 664.5 1468.28C659.071 1463.85 650.23 1459.23 647.5 1457.81C644.77 1456.4 642.5 1455.81 636.87 1455.37C617.258 1455.37 606.254 1464.95 594.96 1474.78C583.058 1485.14 570.835 1495.78 547.875 1495.78C525.813 1495.78 514.711 1485.95 503.457 1475.99C492.162 1465.99 480.713 1455.86 457.875 1455.39C442.457 1455.82 431.21 1464.47 419.274 1473.66C405.384 1484.35 390.56 1495.76 367.14 1495.76C345.096 1495.76 332.114 1485.29 319.367 1475.01C307.073 1465.09 294.997 1455.35 275.22 1455.35C255.607 1455.35 244.601 1464.93 233.306 1474.76C221.404 1485.12 209.18 1495.76 186.225 1495.76C164.165 1495.76 153.064 1485.94 141.811 1475.98C130.244 1465.74 118.514 1455.35 94.5525 1455.35C71.2825 1455.35 61.3809 1465.14 51.3259 1475.09C40.9544 1485.34 30.4197 1495.76 4.88257 1495.76L0 1495.8V1444V1443.81V52V0.143004C19.4955 1.39817 31.6075 11.163 43.5129 20.7613C55.8086 30.6742 67.8839 40.4095 87.645 40.4095C107.257 40.4095 118.262 30.8307 129.555 21.0004C141.457 10.6399 153.68 0 176.64 0C198.702 0 209.804 9.82551 221.058 19.7859C232.353 29.7829 243.802 39.9157 266.64 40.3869C282.058 39.9591 293.305 31.303 305.241 22.1158C319.131 11.425 333.956 0.0150676 357.375 0.0150676C379.419 0.0150676 392.401 10.4862 405.148 20.7679C417.442 30.6843 429.518 40.4246 449.295 40.4246C468.908 40.4246 479.914 30.845 491.209 21.0142C503.112 10.6541 515.335 0.0150676 538.29 0.0150676C560.351 0.0150676 571.451 9.84097 582.704 19.8023C594.271 30.0419 606.001 40.4246 629.963 40.4246C653.233 40.4246 663.134 30.6328 673.189 20.6893C683.561 10.4329 694.095 0.0150676 719.633 0.0150676C745.221 0.0150676 756.614 10.4697 767.809 20.742C770.329 23.055 772.84 25.3587 775.5 27.5318C780.929 31.9687 789.77 36.5889 792.5 38C795.23 39.4111 797.5 40 803.13 40.4467C822.742 40.4467 833.746 30.868 845.04 21.0376C856.942 10.6771 869.165 0.0371895 892.125 0.0371895C914.187 0.0371895 925.289 9.8627 936.543 19.8231C947.838 29.82 959.287 39.9529 982.125 40.4241C997.543 39.9963 1008.79 31.3402 1020.73 22.153C1034.62 11.4622 1049.44 0.0522571 1072.86 0.0522571C1094.9 0.0522571 1107.89 10.5234 1120.63 20.8051C1132.93 30.7215 1145 40.4618 1164.78 40.4618C1184.39 40.4618 1195.4 30.8822 1206.69 21.0514C1218.6 10.6913 1230.82 0.0522571 1253.77 0.0522571C1275.84 0.0522571 1286.94 9.87817 1298.19 19.8395C1309.76 30.0791 1321.49 40.4618 1345.45 40.4618C1368.72 40.4618 1378.62 30.67 1388.67 20.7265C1399.05 10.4701 1409.58 0.0522571 1435.12 0.0522571L1440 0.0150676ZM1193.44 1458.98C1192.49 1464.51 1192 1470.2 1192 1476C1192 1531.23 1236.77 1576 1292 1576C1347.23 1576 1392 1531.23 1392 1476C1392 1474.45 1391.96 1472.91 1391.9 1471.38C1381.07 1462.87 1369.66 1455.41 1352.35 1455.41C1332.74 1455.41 1321.74 1464.98 1310.45 1474.81C1298.54 1485.18 1286.32 1495.81 1263.36 1495.81C1241.3 1495.81 1230.2 1485.99 1218.94 1476.03C1211.56 1469.49 1204.1 1462.9 1193.44 1458.98Z" fill="#BBE5FA"/>
</svg>
