<svg width="1440" height="52" viewBox="0 0 1440 52" fill="none" xmlns="http://www.w3.org/2000/svg">
<path d="M1440 52V0.0150676L1435.12 0.0522571C1384.82 0.0522571 1392.72 40.4618 1345.45 40.4618C1298.18 40.4618 1298.51 0.0522571 1253.77 0.0522571C1209.04 0.0522571 1205.06 40.4618 1164.78 40.4618C1124.5 40.4618 1116.17 0.0522571 1072.86 0.0522571C1029.31 0.0522571 1015.48 39.4984 982.125 40.4241C936.533 39.4833 936.33 0.0371895 892.125 0.0371895C847.38 0.0371895 843.412 40.4467 803.13 40.4467C797.5 40 795.23 39.4111 792.5 38C789.77 36.5889 780.929 31.9687 775.5 27.5318C761.025 15.7077 750.982 0.0150676 719.633 0.0150676C669.338 0.0150676 677.235 40.4246 629.963 40.4246C582.69 40.4246 583.027 0.0150676 538.29 0.0150676C493.552 0.0150676 489.577 40.4246 449.295 40.4246C409.012 40.4246 400.68 0.0150676 357.375 0.0150676C313.83 0.0150676 300 39.4612 266.64 40.3869C221.047 39.4461 220.845 0 176.64 0C131.895 0 127.928 40.4095 87.645 40.4095C48.75 40.4095 39.63 2.69447 0 0.143004L0 52H1440Z" fill="#BBE5FA"/>
</svg>
