<svg width="1440" height="220" viewBox="0 0 1440 220" fill="none" xmlns="http://www.w3.org/2000/svg">
<path fill-rule="evenodd" clip-rule="evenodd" d="M1440 0H0V88V139.985L4.88257 139.948C30.4197 139.948 40.9544 129.53 51.3259 119.273C61.3809 109.33 71.2825 99.5382 94.5525 99.5382C118.514 99.5382 130.244 109.921 141.811 120.161C153.064 130.122 164.165 139.948 186.225 139.948C209.18 139.948 221.404 129.309 233.306 118.949C244.601 109.118 255.607 99.5382 275.22 99.5382C294.997 99.5382 307.073 109.278 319.367 119.195C332.114 129.477 345.096 139.948 367.14 139.948C390.56 139.948 405.384 128.538 419.274 117.847C431.21 108.66 442.457 100.004 457.875 99.5759C480.713 100.047 492.162 110.18 503.457 120.177C514.711 130.137 525.813 139.963 547.875 139.963C570.835 139.963 583.058 129.323 594.96 118.962C606.254 109.132 617.258 99.5533 636.87 99.5533C642.5 100 644.77 100.589 647.5 102C650.23 103.411 659.071 108.031 664.5 112.468C667.16 114.641 669.671 116.945 672.191 119.258C683.386 129.53 694.779 139.985 720.367 139.985C745.905 139.985 756.439 129.567 766.811 119.311C776.866 109.367 786.767 99.5754 810.037 99.5754C833.999 99.5754 845.729 109.958 857.296 120.198C868.549 130.159 879.649 139.985 901.71 139.985C924.665 139.985 936.888 129.346 948.791 118.986C960.086 109.155 971.092 99.5754 990.705 99.5754C1010.48 99.5754 1022.56 109.316 1034.85 119.232C1047.6 129.514 1060.58 139.985 1082.62 139.985C1106.04 139.985 1120.87 128.575 1134.76 117.884C1146.7 108.697 1157.94 100.041 1173.36 99.6131C1181.25 99.7758 1187.78 101.091 1193.41 103.156C1192.48 108.632 1192 114.259 1192 120C1192 175.228 1236.77 220 1292 220C1347.23 220 1392 175.228 1392 120C1392 118.517 1391.97 117.041 1391.9 115.574C1393.44 116.78 1394.96 118.007 1396.48 119.237L1396.49 119.239C1408.39 128.837 1420.5 138.602 1440 139.857V88V0ZM1386.77 88C1373.43 48.4654 1336.04 20 1292 20C1247.96 20 1210.57 48.4654 1197.23 88C1195.58 92.8934 1194.29 97.9564 1193.41 103.156C1204.09 107.068 1211.55 113.67 1218.94 120.214C1230.2 130.174 1241.3 140 1263.36 140C1286.32 140 1298.54 129.36 1310.45 119C1321.74 109.169 1332.74 99.5905 1352.35 99.5905C1369.66 99.5905 1381.08 107.059 1391.9 115.574C1391.49 105.969 1389.71 96.7155 1386.77 88Z" fill="#BBE5FA"/>
</svg>
