<svg width="24" height="24" viewBox="0 0 24 24" fill="none" xmlns="http://www.w3.org/2000/svg">
<path d="M19.8482 12.4025L20.9879 6.13416C21.0076 6.02607 21.0032 5.91499 20.9752 5.80877C20.9472 5.70255 20.8962 5.60378 20.8258 5.51944C20.7554 5.4351 20.6674 5.36725 20.5679 5.32069C20.4684 5.27413 20.3599 5.25 20.25 5.25H5.12597L4.66809 2.73169C4.60539 2.386 4.42329 2.07331 4.15356 1.8482C3.88383 1.62309 3.54361 1.49985 3.19228 1.5H1.5C1.30109 1.5 1.11032 1.57902 0.96967 1.71967C0.829018 1.86032 0.75 2.05109 0.75 2.25C0.75 2.44891 0.829018 2.63968 0.96967 2.78033C1.11032 2.92098 1.30109 3 1.5 3H3.19219L5.76619 17.1565C5.40001 17.479 5.13099 17.8972 4.98935 18.3642C4.84771 18.8311 4.83905 19.3283 4.96435 19.7999C5.08966 20.2715 5.34395 20.6988 5.69869 21.0338C6.05342 21.3689 6.49454 21.5984 6.9725 21.6966C7.45046 21.7948 7.94634 21.7578 8.40445 21.5898C8.86255 21.4217 9.26473 21.1293 9.56583 20.7454C9.86692 20.3614 10.055 19.9011 10.109 19.4161C10.1629 18.9311 10.0806 18.4408 9.87122 18H14.8788C14.6351 18.5139 14.5649 19.093 14.6787 19.6502C14.7926 20.2074 15.0844 20.7126 15.5102 21.0897C15.9359 21.4667 16.4727 21.6953 17.0396 21.741C17.6065 21.7866 18.1728 21.6469 18.6535 21.3429C19.1341 21.0388 19.503 20.5869 19.7046 20.0551C19.9062 19.5233 19.9296 18.9404 19.7713 18.3941C19.613 17.8479 19.2815 17.3678 18.8268 17.0262C18.3721 16.6846 17.8187 16.4999 17.25 16.5H7.17141L6.76228 14.25H17.6345C18.1615 14.2502 18.6718 14.0654 19.0764 13.7277C19.481 13.39 19.7542 12.921 19.8482 12.4025ZM8.625 19.125C8.625 19.3475 8.55902 19.565 8.4354 19.75C8.31179 19.935 8.13609 20.0792 7.93052 20.1644C7.72495 20.2495 7.49875 20.2718 7.28052 20.2284C7.06229 20.185 6.86184 20.0778 6.7045 19.9205C6.54717 19.7632 6.44003 19.5627 6.39662 19.3445C6.35321 19.1262 6.37549 18.9 6.46064 18.6945C6.54578 18.4889 6.68998 18.3132 6.87498 18.1896C7.05999 18.066 7.2775 18 7.5 18C7.79827 18.0003 8.08423 18.119 8.29514 18.3299C8.50605 18.5408 8.62468 18.8267 8.625 19.125ZM18.375 19.125C18.375 19.3475 18.309 19.565 18.1854 19.75C18.0618 19.935 17.8861 20.0792 17.6805 20.1644C17.475 20.2495 17.2488 20.2718 17.0305 20.2284C16.8123 20.185 16.6118 20.0778 16.4545 19.9205C16.2972 19.7632 16.19 19.5627 16.1466 19.3445C16.1032 19.1262 16.1255 18.9 16.2106 18.6945C16.2958 18.4889 16.44 18.3132 16.625 18.1896C16.81 18.066 17.0275 18 17.25 18C17.5483 18.0003 17.8342 18.119 18.0451 18.3299C18.256 18.5408 18.3747 18.8267 18.375 19.125ZM5.39869 6.75H19.3513L18.3724 12.1343C18.341 12.3071 18.25 12.4634 18.1151 12.5759C17.9803 12.6885 17.8102 12.7501 17.6346 12.75H6.48956L5.39869 6.75Z" fill="#231F20"/>
</svg>
