<svg width="76" height="24" viewBox="0 0 76 24" fill="none" xmlns="http://www.w3.org/2000/svg">
<path d="M31.8555 6.33496C27.9663 6.33496 25.4913 7.81835 24.7496 10.5884L27.4373 11.9708C27.7909 10.0089 29.4072 8.9269 31.9964 8.9269C34.4714 8.9269 35.9229 9.93974 35.9229 11.6916V12.1276C35.9229 12.7018 35.6039 12.9703 34.7904 13.0394L29.8059 13.51C26.2702 13.8476 24.1116 15.8015 24.1116 18.6992C24.1116 21.8334 26.5042 23.9894 30.1249 23.9894C32.6344 23.9894 34.6841 22.9446 35.9229 21.1927V23.5853H38.9774V12.6487C38.9774 8.45902 36.5582 6.33496 31.8555 6.33496ZM35.9229 16.7825C35.9229 19.2415 33.5543 21.2618 30.5822 21.2618C28.5325 21.2618 27.2937 20.2517 27.2937 18.7364C27.2937 17.354 28.3571 16.4103 30.1595 16.2082L35.9229 15.5357V16.7825Z" fill="#231F20"/>
<path d="M18.9863 18.7364L3.1821 0H0V23.5879H3.1821V4.88613L18.9863 23.5879H22.1684V0H18.9863V18.7364Z" fill="#231F20"/>
<path d="M55.4754 9.19273C54.7225 8.27529 53.7713 7.54069 52.6933 7.04429C51.6153 6.54788 50.4387 6.30262 49.2521 6.32698C44.2304 6.32698 40.7452 9.96632 40.7452 15.1555C40.7452 20.3447 44.2437 23.984 49.2521 23.984C51.868 23.984 54.0372 23.0084 55.4754 21.1529V23.58H58.5166V0H55.4754V9.19273ZM49.7838 21.2884C46.2109 21.2884 43.8768 18.864 43.8768 15.1555C43.8768 11.447 46.2109 9.02259 49.7838 9.02259C53.3567 9.02259 55.6881 11.4151 55.6881 15.1555C55.6881 18.8959 53.354 21.2964 49.7838 21.2964V21.2884Z" fill="#231F20"/>
<path d="M68.2038 6.33496C64.3146 6.33496 61.8396 7.81835 61.0979 10.5884L63.7856 11.9708C64.1391 10.0168 65.7634 8.93753 68.3447 8.93753C70.8197 8.93753 72.2711 9.95038 72.2711 11.7023V12.1382C72.2711 12.7125 71.9521 12.9809 71.1387 13.0501L66.1542 13.5206C62.6185 13.8582 60.4599 15.8121 60.4599 18.7098C60.4599 21.844 62.8658 24 66.4705 24C68.9827 24 71.0323 22.9552 72.2711 21.2034V23.5959H75.3124V12.6487C75.3124 8.45902 72.9065 6.33496 68.2038 6.33496ZM72.2711 16.7825C72.2711 19.2415 69.9025 21.2619 66.9304 21.2619C64.8808 21.2619 63.642 20.2517 63.642 18.7364C63.642 17.354 64.7054 16.4103 66.5077 16.2082L72.2711 15.5357V16.7825Z" fill="#231F20"/>
<path d="M70.5857 2.77271H71.0802V0.422686H71.9122V0H69.7616V0.422686H70.5857V2.77271Z" fill="#231F20"/>
<path d="M74.8152 0L73.8609 1.65884H73.8529L72.8932 0H72.3987V2.77271H72.8905V0.914488H72.8985L73.6934 2.23837H74.0177L74.8126 0.914488H74.8179V2.77271H75.3123V0H74.8152Z" fill="#231F20"/>
</svg>
