<svg width="24" height="24" viewBox="0 0 24 24" fill="none" xmlns="http://www.w3.org/2000/svg">
<path d="M21.75 12C21.7511 10.3779 21.3475 8.78114 20.5757 7.3544C19.8039 5.92766 18.6883 4.71603 17.33 3.82927C15.9718 2.94251 14.4137 2.40864 12.797 2.27604C11.1803 2.14344 9.55612 2.41629 8.07151 3.06988C6.58689 3.72346 5.28881 4.73713 4.29485 6.01904C3.30089 7.30095 2.64247 8.81059 2.37924 10.4112C2.116 12.0118 2.25628 13.6528 2.78735 15.1855C3.31843 16.7182 4.22352 18.0942 5.42062 19.1888C5.45776 19.2306 5.49946 19.268 5.54494 19.3004C7.32491 20.8786 9.62139 21.7501 12.0003 21.75C14.3791 21.7499 16.6756 20.8783 18.4554 19.3C18.5006 19.2678 18.542 19.2307 18.5789 19.1893C19.5785 18.2774 20.3768 17.1671 20.9228 15.9291C21.4688 14.6912 21.7505 13.353 21.75 12ZM3.75 12C3.74894 10.6634 4.07264 9.3466 4.69324 8.16283C5.31384 6.97906 6.21276 5.9638 7.31265 5.20441C8.41254 4.44501 9.68047 3.96422 11.0073 3.8034C12.3342 3.64258 13.6803 3.80655 14.9298 4.2812C16.1792 4.75585 17.2946 5.52696 18.1801 6.5282C19.0655 7.52943 19.6944 8.7308 20.0127 10.0289C20.331 11.3271 20.3291 12.6831 20.0072 13.9803C19.6853 15.2776 19.053 16.4772 18.1648 17.4759C17.3288 16.2637 16.1526 15.326 14.7846 14.7811C15.5193 14.2023 16.0555 13.4089 16.3185 12.5113C16.5815 11.6137 16.5582 10.6564 16.2519 9.77258C15.9456 8.88878 15.3716 8.12239 14.6095 7.57998C13.8475 7.03757 12.9354 6.7461 12 6.7461C11.0646 6.7461 10.1525 7.03757 9.39048 7.57998C8.62845 8.12239 8.05437 8.88878 7.74809 9.77258C7.4418 10.6564 7.41854 11.6137 7.68152 12.5113C7.9445 13.4089 8.48066 14.2023 9.21544 14.7811C7.84737 15.326 6.67121 16.2637 5.83519 17.4759C4.49074 15.9689 3.74843 14.0196 3.75 12ZM9 11.25C9 10.6567 9.17595 10.0766 9.50559 9.58329C9.83524 9.08994 10.3038 8.70543 10.8519 8.47836C11.4001 8.2513 12.0033 8.19189 12.5853 8.30765C13.1672 8.4234 13.7018 8.70913 14.1213 9.12868C14.5409 9.54824 14.8266 10.0828 14.9424 10.6647C15.0581 11.2467 14.9987 11.8499 14.7716 12.3981C14.5446 12.9462 14.1601 13.4148 13.6667 13.7444C13.1734 14.0741 12.5933 14.25 12 14.25C11.2046 14.2491 10.4421 13.9328 9.87967 13.3703C9.31725 12.8079 9.00089 12.0454 9 11.25ZM6.94528 18.5155C7.48822 17.6676 8.23576 16.9698 9.11908 16.4865C10.0024 16.0032 10.9931 15.7499 12 15.7499C13.0069 15.7499 13.9976 16.0032 14.8809 16.4865C15.7642 16.9698 16.5118 17.6676 17.0547 18.5155C15.6096 19.6397 13.8309 20.25 12 20.25C10.1691 20.25 8.39044 19.6397 6.94528 18.5155Z" fill="#26418D"/>
</svg>
