<svg width="24" height="24" viewBox="0 0 24 24" fill="none" xmlns="http://www.w3.org/2000/svg">
<path d="M12.8222 4.43103C12.7304 4.29778 12.6077 4.18884 12.4645 4.11358C12.3213 4.03832 12.162 3.99899 12.0002 3.99899C11.8384 3.99899 11.6791 4.03832 11.5359 4.11358C11.3927 4.18884 11.2699 4.29778 11.1782 4.43103L2.17819 17.431C2.07401 17.581 2.01292 17.7566 2.00155 17.9388C1.99018 18.1211 2.02897 18.3029 2.1137 18.4646C2.19843 18.6264 2.32586 18.7618 2.48215 18.8562C2.63844 18.9506 2.81761 19.0003 3.00019 19L21.0002 19C21.1823 18.9993 21.3608 18.9489 21.5165 18.8543C21.6722 18.7597 21.7991 18.6244 21.8836 18.463C21.9682 18.3017 22.0071 18.1203 21.9963 17.9385C21.9855 17.7567 21.9253 17.5812 21.8222 17.431L12.8222 4.43103Z" fill="#231F20"/>
</svg>
