<svg width="776" height="473" viewBox="0 0 776 473" fill="none" xmlns="http://www.w3.org/2000/svg">
<rect y="0.000488281" width="776" height="379" rx="189.5" fill="#BBE5FA"/>
<path d="M344.171 377.377C346.274 375.022 348.143 372.491 349.76 369.785C359.223 353.919 358.58 333.965 348.864 318.255L308.5 253L268.156 318.255C258.439 333.965 257.777 353.919 267.24 369.785C268.857 372.491 270.726 375.022 272.829 377.377C261.321 387.364 254 402.062 254 418.512C254 448.608 278.397 473 308.5 473C338.603 473 363 448.608 363 418.512C363 402.062 355.698 387.364 344.171 377.377ZM344.074 377.28C344.093 377.299 344.113 377.299 344.113 377.319C343.451 378.058 342.75 378.798 342.029 379.499C341.854 379.674 341.679 379.849 341.504 380.025C340.803 380.687 340.102 381.348 339.362 381.991C339.323 382.01 339.304 382.049 339.265 382.069C338.466 382.75 337.648 383.393 336.811 384.015C336.655 384.132 336.519 384.23 336.363 384.346C335.526 384.95 334.689 385.534 333.813 386.079C333.813 386.079 333.793 386.079 333.793 386.098C333.034 386.566 332.255 387.013 331.457 387.442C331.924 387.189 332.411 386.916 332.878 386.644C332.235 387.033 331.593 387.403 330.931 387.753C331.106 387.656 331.281 387.539 331.457 387.442C331.203 387.578 330.95 387.734 330.697 387.87C330.678 387.87 330.678 387.889 330.658 387.889C329.996 388.24 329.315 388.551 328.633 388.863C327.991 389.155 327.329 389.447 326.667 389.719C326.102 389.953 325.557 390.187 324.992 390.381C325.148 390.323 325.304 390.284 325.44 390.226C325.109 390.342 324.797 390.459 324.466 390.576C324.642 390.518 324.817 390.44 324.992 390.362C323.707 390.829 322.422 391.257 321.078 391.627H321.059C321.059 391.627 321.059 391.627 321.078 391.627C317.749 392.523 314.263 393.087 310.622 393.223C309.921 393.262 309.201 393.262 308.481 393.262C307.76 393.262 307.059 393.243 306.339 393.223C302.698 393.068 299.212 392.523 295.902 391.627H295.922H295.902C294.559 391.277 293.273 390.829 291.988 390.362C292.164 390.42 292.319 390.498 292.495 390.556C292.164 390.44 291.852 390.323 291.541 390.206C291.696 390.264 291.852 390.303 291.988 390.342C291.424 390.128 290.859 389.914 290.314 389.68C290.567 389.778 290.801 389.914 291.054 390.011C290.139 389.661 289.243 389.252 288.367 388.843C287.685 388.532 287.004 388.201 286.342 387.87C286.322 387.87 286.303 387.85 286.303 387.85C286.05 387.714 285.816 387.578 285.563 387.442C285.738 387.539 285.913 387.656 286.089 387.734C285.427 387.383 284.784 387.013 284.161 386.644C284.628 386.916 285.096 387.189 285.582 387.442C284.784 387.013 284.005 386.566 283.246 386.079C283.246 386.079 283.226 386.079 283.226 386.06C282.35 385.514 281.493 384.93 280.656 384.327C280.5 384.21 280.364 384.113 280.208 383.996C279.371 383.373 278.553 382.731 277.755 382.049C277.716 382.03 277.696 381.991 277.677 381.971C276.937 381.329 276.217 380.687 275.535 380.005C275.36 379.83 275.165 379.655 274.99 379.48C274.27 378.779 273.569 378.058 272.907 377.299C272.926 377.28 272.946 377.28 272.965 377.26C272.946 377.241 272.926 377.221 272.907 377.202C282.467 368.928 294.89 363.886 308.539 363.886C322.169 363.886 334.611 368.928 344.152 377.202C344.113 377.241 344.093 377.26 344.074 377.28Z" fill="#26418D"/>
</svg>
