<svg width="241" height="296" viewBox="0 0 241 296" fill="none" xmlns="http://www.w3.org/2000/svg">
<path d="M0.70752 117.507C0.70752 52.611 53.316 0.00244141 118.212 0.00244141H241.097V235.011H118.212C53.3161 235.011 0.70752 182.403 0.70752 117.507Z" fill="#BBE5FA"/>
<path d="M201.168 234.594C202.493 233.106 203.671 231.507 204.689 229.797C210.653 219.773 210.248 207.165 204.125 197.239L178.687 156.008L153.262 197.239C147.139 207.165 146.721 219.773 152.685 229.797C153.704 231.507 154.882 233.106 156.207 234.594C148.955 240.904 144.341 250.191 144.341 260.585C144.341 279.601 159.716 295.013 178.687 295.013C197.658 295.013 213.034 279.601 213.034 260.585C213.034 250.191 208.432 240.904 201.168 234.594ZM201.106 234.533C201.119 234.545 201.131 234.545 201.131 234.557C200.714 235.025 200.272 235.492 199.818 235.935C199.707 236.046 199.597 236.156 199.487 236.267C199.045 236.685 198.603 237.104 198.137 237.51C198.112 237.522 198.1 237.546 198.075 237.559C197.572 237.989 197.057 238.395 196.529 238.789C196.431 238.863 196.345 238.924 196.247 238.998C195.719 239.379 195.192 239.748 194.64 240.093C194.64 240.093 194.627 240.093 194.627 240.105C194.149 240.4 193.658 240.683 193.155 240.954C193.449 240.794 193.756 240.621 194.051 240.449C193.646 240.695 193.241 240.929 192.823 241.15C192.934 241.089 193.044 241.015 193.155 240.954C192.995 241.04 192.836 241.138 192.676 241.224C192.664 241.224 192.664 241.236 192.652 241.236C192.234 241.458 191.805 241.655 191.375 241.851C190.971 242.036 190.553 242.22 190.136 242.393C189.78 242.54 189.437 242.688 189.081 242.811C189.179 242.774 189.277 242.749 189.363 242.712C189.154 242.786 188.958 242.86 188.75 242.934C188.86 242.897 188.97 242.848 189.081 242.799C188.271 243.094 187.461 243.364 186.614 243.598H186.602C186.602 243.598 186.602 243.598 186.614 243.598C184.516 244.164 182.32 244.521 180.025 244.607C179.583 244.631 179.129 244.631 178.675 244.631C178.221 244.631 177.779 244.619 177.325 244.607C175.031 244.508 172.834 244.164 170.748 243.598H170.76H170.748C169.901 243.377 169.091 243.094 168.282 242.799C168.392 242.836 168.49 242.885 168.601 242.922C168.392 242.848 168.196 242.774 167.999 242.7C168.097 242.737 168.196 242.762 168.282 242.786C167.926 242.651 167.57 242.516 167.226 242.368C167.386 242.43 167.533 242.516 167.692 242.577C167.116 242.356 166.551 242.097 165.999 241.839C165.57 241.642 165.14 241.433 164.723 241.224C164.711 241.224 164.698 241.212 164.698 241.212C164.539 241.126 164.392 241.04 164.232 240.954C164.343 241.015 164.453 241.089 164.563 241.138C164.146 240.917 163.741 240.683 163.349 240.449C163.643 240.621 163.938 240.794 164.244 240.954C163.741 240.683 163.25 240.4 162.772 240.093C162.772 240.093 162.76 240.093 162.76 240.08C162.207 239.736 161.667 239.367 161.14 238.986C161.042 238.912 160.956 238.85 160.858 238.776C160.33 238.383 159.815 237.977 159.311 237.546C159.287 237.534 159.275 237.51 159.262 237.497C158.796 237.091 158.342 236.685 157.913 236.255C157.802 236.144 157.679 236.033 157.569 235.923C157.115 235.48 156.673 235.025 156.256 234.545C156.268 234.533 156.28 234.533 156.293 234.521C156.28 234.508 156.268 234.496 156.256 234.484C162.281 229.256 170.11 226.07 178.712 226.07C187.302 226.07 195.143 229.256 201.155 234.484C201.131 234.508 201.119 234.521 201.106 234.533Z" fill="#26418D"/>
</svg>
