<svg width="388" height="348" viewBox="0 0 388 348" fill="none" xmlns="http://www.w3.org/2000/svg">
<rect width="776" height="275" rx="137.5" fill="#BBE5FA"/>
<path d="M339.268 274.544C340.883 272.734 342.319 270.79 343.561 268.712C350.83 256.524 350.336 241.195 342.873 229.127L311.866 179L280.874 229.127C273.41 241.195 272.902 256.524 280.171 268.712C281.413 270.79 282.848 272.734 284.464 274.544C275.624 282.215 270 293.506 270 306.143C270 329.262 288.742 348 311.866 348C334.99 348 353.732 329.262 353.732 306.143C353.732 293.506 348.123 282.215 339.268 274.544ZM339.193 274.469C339.208 274.484 339.223 274.484 339.223 274.499C338.715 275.067 338.176 275.636 337.623 276.174C337.488 276.308 337.353 276.443 337.219 276.578C336.68 277.086 336.142 277.595 335.573 278.088C335.544 278.103 335.529 278.133 335.499 278.148C334.885 278.671 334.257 279.165 333.614 279.643C333.494 279.733 333.39 279.808 333.27 279.898C332.627 280.361 331.984 280.81 331.311 281.228C331.311 281.228 331.296 281.228 331.296 281.243C330.712 281.602 330.114 281.946 329.501 282.275C329.86 282.081 330.234 281.872 330.593 281.662C330.099 281.961 329.605 282.245 329.097 282.515C329.232 282.44 329.366 282.35 329.501 282.275C329.306 282.38 329.112 282.5 328.917 282.604C328.902 282.604 328.902 282.619 328.887 282.619C328.379 282.888 327.855 283.128 327.332 283.367C326.838 283.591 326.33 283.816 325.821 284.025C325.387 284.204 324.969 284.384 324.535 284.533C324.655 284.489 324.774 284.459 324.879 284.414C324.625 284.503 324.385 284.593 324.131 284.683C324.266 284.638 324.4 284.578 324.535 284.518C323.548 284.877 322.56 285.206 321.528 285.49H321.513C321.513 285.49 321.513 285.49 321.528 285.49C318.971 286.178 316.293 286.612 313.496 286.717C312.958 286.747 312.404 286.747 311.851 286.747C311.298 286.747 310.759 286.732 310.206 286.717C307.409 286.597 304.731 286.178 302.188 285.49H302.203H302.188C301.156 285.221 300.169 284.877 299.182 284.518C299.317 284.563 299.436 284.623 299.571 284.668C299.317 284.578 299.077 284.489 298.838 284.399C298.958 284.444 299.077 284.474 299.182 284.504C298.748 284.339 298.314 284.174 297.896 283.995C298.09 284.07 298.27 284.174 298.464 284.249C297.761 283.98 297.073 283.666 296.4 283.352C295.876 283.113 295.353 282.859 294.844 282.604C294.829 282.604 294.814 282.589 294.814 282.589C294.62 282.485 294.44 282.38 294.246 282.275C294.381 282.35 294.515 282.44 294.65 282.5C294.141 282.23 293.648 281.946 293.169 281.662C293.528 281.872 293.887 282.081 294.261 282.275C293.648 281.946 293.049 281.602 292.466 281.228C292.466 281.228 292.451 281.228 292.451 281.214C291.778 280.795 291.12 280.346 290.477 279.883C290.357 279.793 290.252 279.718 290.133 279.628C289.49 279.15 288.861 278.656 288.248 278.133C288.218 278.118 288.203 278.088 288.188 278.073C287.62 277.58 287.066 277.086 286.543 276.563C286.408 276.428 286.259 276.294 286.124 276.159C285.571 275.621 285.032 275.067 284.524 274.484C284.539 274.469 284.554 274.469 284.569 274.454C284.554 274.439 284.539 274.424 284.524 274.409C291.868 268.054 301.411 264.18 311.896 264.18C322.366 264.18 331.924 268.054 339.253 274.409C339.223 274.439 339.208 274.454 339.193 274.469Z" fill="#26418D"/>
</svg>
