<svg width="5949" height="80" viewBox="0 0 5949 80" fill="none" xmlns="http://www.w3.org/2000/svg">
<path fill-rule="evenodd" clip-rule="evenodd" d="M5949 78.9775V0.766602H3785V0.767792H2164H1899H0V78.7862C29.2974 76.8979 47.499 62.2067 65.3902 47.7662C83.8679 32.8523 102.014 18.2056 131.711 18.2056C161.184 18.2056 177.721 32.6168 194.692 47.4064C212.578 62.9937 230.947 79.0014 265.451 79.0014C298.605 79.0014 315.288 64.219 332.201 49.2336C349.175 34.1933 366.38 18.9485 400.701 18.2395C423.871 18.8833 440.772 31.9063 458.71 45.7283C479.583 61.8126 501.861 78.9787 537.055 78.9787C570.183 78.9787 589.691 63.225 608.847 47.7563C627.323 32.8371 645.47 18.1829 675.191 18.1829C704.665 18.1829 721.204 32.5954 738.178 47.3857C756.065 62.9724 774.434 78.9787 808.93 78.9787C842.082 78.9787 858.763 64.1957 875.674 49.209C893.058 33.8036 910.684 18.1829 946.694 18.1829C981.663 18.1829 996.543 32.9146 1011.65 47.8744C1027.24 63.3052 1043.07 78.9787 1081.45 78.9787C1119.9 78.9787 1137.02 63.2499 1153.85 47.7952C1157.63 44.3154 1161.41 40.8494 1165.4 37.5801C1173.56 30.9047 1186.85 23.9536 1190.95 21.8307C1195.05 19.7078 1198.47 18.8217 1206.93 18.1496C1236.4 18.1496 1252.94 32.5608 1269.91 47.3504C1287.79 62.9377 1306.16 78.9454 1340.67 78.9454C1373.82 78.9454 1390.5 64.163 1407.42 49.1776C1424.39 34.1374 1441.6 18.8926 1475.92 18.1836C1499.09 18.8273 1515.99 31.8504 1533.92 45.6724C1554.8 61.7567 1577.08 78.9228 1612.27 78.9228C1645.4 78.9228 1664.91 63.1691 1684.06 47.7003C1702.54 32.7811 1720.69 18.127 1750.41 18.127C1779.88 18.127 1796.42 32.5394 1813.39 47.3297C1831.28 62.9164 1849.65 78.9228 1884.15 78.9228C1889.5 78.9228 1894.43 78.5366 1899 77.8257V78.7862C1928.3 76.8979 1946.5 62.2067 1964.39 47.7662C1982.21 33.3865 1999.71 19.2553 2027.56 18.2613C2058.54 19.7672 2072.6 33.6911 2086.87 47.8185C2102.45 63.2492 2118.29 78.9228 2156.66 78.9228L2161.4 78.9589C2162.4 78.9871 2163.42 79.0014 2164.45 79.0014C2197.6 79.0014 2214.29 64.219 2231.2 49.2336C2248.18 34.1933 2265.38 18.9485 2299.7 18.2395C2322.87 18.8833 2339.77 31.9063 2357.71 45.7283C2378.58 61.8126 2400.86 78.9787 2436.06 78.9787C2469.18 78.9787 2488.69 63.225 2507.85 47.7562C2526.32 32.8371 2544.47 18.1829 2574.19 18.1829C2603.66 18.1829 2620.2 32.5954 2637.18 47.3857C2655.06 62.9724 2673.43 78.9787 2707.93 78.9787C2741.08 78.9787 2757.76 64.1957 2774.67 49.2091C2792.06 33.8036 2809.68 18.1829 2845.69 18.1829C2880.66 18.1829 2895.54 32.9146 2910.65 47.8744C2926.24 63.3052 2942.07 78.9787 2980.45 78.9787C3018.9 78.9787 3036.02 63.25 3052.85 47.7955C3056.63 44.3155 3060.41 40.8495 3064.4 37.5801C3072.56 30.9047 3085.85 23.9536 3089.95 21.8307C3094.05 19.7078 3097.47 18.8217 3105.93 18.1496C3135.4 18.1496 3151.94 32.5608 3168.91 47.3504C3186.79 62.9378 3205.16 78.9454 3239.67 78.9454C3272.82 78.9454 3289.5 64.163 3306.42 49.1776C3323.39 34.1373 3340.6 18.8926 3374.92 18.1836C3398.09 18.8273 3414.99 31.8504 3432.92 45.6725C3453.8 61.7567 3476.08 78.9228 3511.27 78.9228C3544.4 78.9228 3563.91 63.169 3583.06 47.7003C3601.54 32.7811 3619.69 18.127 3649.41 18.127C3678.88 18.127 3695.42 32.5394 3712.39 47.3297C3730.28 62.9164 3748.65 78.9228 3783.15 78.9228C3816.3 78.9228 3832.98 64.1398 3849.89 49.1531C3855.6 44.0951 3861.33 39.0138 3867.73 34.4699C3871.69 31.7384 3875.79 29.2027 3880.13 26.9851C3889.95 22.1047 3901.6 18.7477 3916.57 18.2045C3916.62 18.2044 3916.67 18.2044 3916.71 18.2044C3946.18 18.2044 3962.72 32.6156 3979.69 47.4052C3997.58 62.9925 4015.95 79.0002 4050.45 79.0002C4051.88 79.0002 4053.28 78.9728 4054.65 78.9191C4054.98 78.9215 4055.32 78.9228 4055.66 78.9228L4063 78.9787V78.2302C4088.11 75.0116 4102.57 62.198 4117.2 49.2325C4134.18 34.1922 4151.38 18.9474 4185.7 18.2383C4208.87 18.8821 4225.77 31.9052 4243.71 45.7272C4264.58 61.8114 4286.86 78.9775 4322.06 78.9775C4355.18 78.9775 4374.69 63.2239 4393.85 47.7551C4412.32 32.8359 4430.47 18.1817 4460.19 18.1817C4489.66 18.1817 4506.2 32.5942 4523.18 47.3845C4541.06 62.9712 4559.43 78.9775 4593.93 78.9775C4627.08 78.9775 4643.76 64.1945 4660.67 49.2079C4678.06 33.8024 4695.68 18.1817 4731.69 18.1817C4766.66 18.1817 4781.54 32.9134 4796.65 47.8733C4812.24 63.304 4828.07 78.9775 4866.45 78.9775C4904.9 78.9775 4922.02 63.2488 4938.85 47.7942C4942.63 44.3143 4946.41 40.8483 4950.4 37.5789C4958.56 30.9035 4971.85 23.9524 4975.95 21.8295C4980.05 19.7066 4983.47 18.8205 4991.93 18.1484C5021.4 18.1484 5037.94 32.5596 5054.91 47.3493C5072.79 62.9366 5091.16 78.9442 5125.67 78.9442C5158.82 78.9442 5175.5 64.1618 5192.42 49.1764C5209.39 34.1362 5226.6 18.8914 5260.92 18.1824C5284.09 18.8261 5300.99 31.8493 5318.93 45.6713C5339.8 61.7555 5362.08 78.9216 5397.27 78.9216C5430.4 78.9216 5449.91 63.1679 5469.06 47.6991C5487.54 32.7799 5505.69 18.1258 5535.41 18.1258C5564.88 18.1258 5581.42 32.5382 5598.39 47.3285C5616.28 62.9152 5634.65 78.9216 5669.15 78.9216C5702.3 78.9216 5718.98 64.1386 5735.89 49.1519C5753.27 33.7465 5770.9 18.1258 5806.91 18.1258C5841.88 18.1258 5856.76 32.8574 5871.87 47.8173C5887.45 63.248 5903.29 78.9216 5941.66 78.9216L5949 78.9775Z" fill="#F1F5F5"/>
</svg>
