<svg width="1440" height="79" viewBox="0 0 1440 79" fill="none" xmlns="http://www.w3.org/2000/svg">
  <path d="M1851 0.766403V78.9773L1843.66 78.9214C1768.08 78.9214 1779.95 18.1256 1708.91 18.1256C1637.87 18.1256 1638.38 78.9214 1571.15 78.9214C1503.91 78.9214 1497.94 18.1256 1437.41 18.1256C1376.87 18.1256 1364.35 78.9214 1299.27 78.9214C1233.83 78.9214 1213.05 19.575 1162.92 18.1822C1094.4 19.5976 1094.1 78.944 1027.67 78.944C960.424 78.944 954.462 18.1482 893.926 18.1482C885.465 18.8203 882.054 19.7064 877.951 21.8293C873.849 23.9522 860.562 30.9033 852.404 37.5787C830.651 55.3679 815.56 78.9773 768.448 78.9773C692.866 78.9773 704.734 18.1815 633.694 18.1815C562.654 18.1815 563.161 78.9773 495.93 78.9773C428.7 78.9773 422.726 18.1815 362.191 18.1815C301.655 18.1815 289.133 78.9773 224.055 78.9773C158.617 78.9773 137.833 19.6309 87.7007 18.2381C19.1853 19.6536 18.881 79 -47.5493 79C-114.791 79 -120.753 18.2042 -181.289 18.2042C-239.74 18.2042 -253.445 74.9462 -313 78.7849V0.766403H1851Z" fill="#F1F5F5"/>
</svg>
